<?xml version="1.0" standalone="no"?>
<!DOCTYPE svg PUBLIC "-//W3C//DTD SVG 20010904//EN"
 "http://www.w3.org/TR/2001/REC-SVG-20010904/DTD/svg10.dtd">
<svg version="1.0" xmlns="http://www.w3.org/2000/svg"
 width="500.000000pt" height="500.000000pt" viewBox="0 0 500.000000 500.000000"
 preserveAspectRatio="xMidYMid meet">
<metadata>
Created by potrace 1.14, written by Peter Selinger 2001-2017
</metadata>
<g transform="translate(0.000000,500.000000) scale(0.100000,-0.100000)"
fill="#000000" stroke="none">
<path d="M2336 4130 c-388 -45 -776 -259 -995 -550 -207 -274 -303 -551 -303
-875 -1 -286 74 -539 228 -775 446 -683 1374 -872 2056 -417 399 265 639 707
641 1177 1 331 -95 614 -304 890 -199 265 -551 475 -896 535 -110 19 -323 27
-427 15z m212 -322 c80 -41 92 -71 161 -400 l29 -138 -365 0 -365 0 -39 -39
-39 -39 0 -292 c0 -274 -1 -292 -17 -285 -55 23 -102 9 -142 -41 -27 -34 -28
-94 -2 -125 27 -34 99 -34 135 0 l26 24 0 -129 0 -130 -106 -48 c-58 -26 -120
-52 -137 -57 -43 -12 -102 6 -143 44 l-35 32 -69 449 c-39 247 -70 472 -70
500 0 118 30 158 172 231 127 65 797 428 839 455 43 27 100 23 167 -12z m463
-218 c156 -111 302 -220 324 -244 23 -24 47 -62 55 -85 7 -22 18 -41 25 -41
14 0 49 -153 40 -179 -3 -10 24 -146 59 -302 74 -324 116 -516 116 -531 0 -7
-17 -9 -43 -6 -36 4 -84 33 -280 169 l-236 164 0 80 c0 55 4 86 14 99 19 25
19 75 1 123 -10 25 -16 89 -18 193 -4 169 -9 189 -61 220 -26 16 -51 20 -129
20 -93 0 -98 1 -103 23 -46 203 -95 435 -95 448 0 18 25 49 39 49 4 0 136 -90
292 -200z m-596 -790 l110 -94 3 172 2 172 65 0 65 0 -2 -347 -3 -348 -62 -3
-63 -3 -2 175 -3 174 -165 -140 c-91 -77 -182 -153 -202 -170 l-38 -30 0 347
0 347 93 -79 c50 -44 142 -122 202 -173z m463 -97 l-3 -348 -60 0 -60 0 -3
348 -2 347 65 0 65 0 -2 -347z m576 -482 c43 -31 87 -67 97 -80 27 -34 25 -85
-3 -103 -55 -35 -951 -453 -1018 -475 -127 -42 -129 -41 -495 152 -372 195
-425 228 -425 259 0 43 31 64 231 156 l110 50 26 -20 c24 -18 40 -20 210 -20
l184 0 -15 -28 c-45 -86 109 -128 187 -51 22 23 28 35 23 54 l-6 25 215 0 215
0 37 34 37 33 4 140 4 141 152 -106 c83 -58 186 -131 230 -161z"/>
<path d="M2285 3621 c-32 -13 -72 -59 -78 -89 -14 -73 55 -128 125 -99 92 39
113 143 37 183 -31 16 -54 17 -84 5z"/>
<path d="M1685 3308 c-42 -10 -85 -58 -92 -101 -5 -31 -1 -40 25 -67 45 -45
92 -42 143 9 45 45 52 92 19 133 -23 29 -52 38 -95 26z"/>
<path d="M1431 2853 c0 -21 8 -81 17 -133 13 -74 21 -95 35 -98 21 -4 21 8 -1
153 -14 88 -21 111 -35 113 -14 3 -17 -4 -16 -35z"/>
<path d="M2818 3599 c-44 -25 -30 -139 23 -183 36 -30 60 -33 81 -8 39 43 27
126 -24 174 -32 29 -52 34 -80 17z"/>
<path d="M3280 3312 c-27 -8 -40 -35 -40 -79 0 -99 90 -174 134 -111 48 68
-23 212 -94 190z"/>
<path d="M3112 3088 c-32 -41 -23 -114 20 -164 32 -36 76 -46 97 -21 33 41 20
125 -26 171 -28 28 -74 35 -91 14z"/>
<path d="M3404 2589 c-40 -45 -9 -160 51 -187 35 -16 42 -15 65 8 38 38 19
136 -35 178 -35 28 -57 28 -81 1z"/>
<path d="M3457 2313 c-13 -13 -6 -23 35 -53 48 -35 92 -39 108 -10 6 11 8 25
5 30 -8 13 -35 13 -35 0 0 -17 -25 -11 -60 15 -36 27 -43 29 -53 18z"/>
<path d="M3125 2099 c-63 -37 -82 -81 -47 -112 41 -37 121 -33 172 9 57 48 28
104 -57 111 -27 2 -57 -2 -68 -8z"/>
<path d="M1990 1989 c-38 -16 -70 -50 -70 -75 0 -12 12 -32 26 -43 82 -64 249
36 174 104 -23 21 -95 29 -130 14z"/>
<path d="M2762 1940 c-73 -17 -108 -91 -60 -124 48 -34 162 -10 188 39 31 59
-41 106 -128 85z"/>
<path d="M2403 1805 c-103 -45 -63 -145 54 -132 61 7 103 40 103 82 0 28 -6
37 -30 50 -36 18 -85 19 -127 0z"/>
<path d="M2708 1724 c-44 -22 -60 -45 -40 -58 13 -8 107 48 107 63 0 23 -17
22 -67 -5z"/>
<path d="M2242 1654 c2 -9 30 -31 62 -48 84 -44 172 -43 269 1 37 18 67 37 67
43 0 23 -30 20 -106 -10 -93 -37 -138 -37 -215 4 -59 30 -82 33 -77 10z"/>
</g>
</svg>
